<svg width="32" height="32" viewBox="0 0 32 32" fill="none" xmlns="http://www.w3.org/2000/svg">
<path d="M16 32C24.8366 32 32 24.8366 32 16C32 7.16344 24.8366 0 16 0C7.16345 0 0 7.16344 0 16C0 24.8366 7.16345 32 16 32Z" fill="url(#paint0_linear_1078_60725)"/>
<path d="M26.8453 27.7602C23.8945 25.3358 20.1173 23.8804 16.0002 23.8804C11.8827 23.8804 8.10524 25.3361 5.1543 27.7609C5.1543 27.7609 9.02778 32.0002 16.0002 32.0002C22.9727 32.0002 26.8453 27.7602 26.8453 27.7602Z" fill="#07B723"/>
<path d="M15.9999 19.3015C19.0352 19.3015 21.4958 16.8409 21.4958 13.8055C21.4958 10.7702 19.0352 8.30957 15.9999 8.30957C12.9645 8.30957 10.5039 10.7702 10.5039 13.8055C10.5039 16.8409 12.9645 19.3015 15.9999 19.3015Z" stroke="#07B723" stroke-width="2" stroke-miterlimit="10"/>
<defs>
<linearGradient id="paint0_linear_1078_60725" x1="16" y1="0" x2="16" y2="32" gradientUnits="userSpaceOnUse">
<stop stop-color="#E0FFDE"/>
<stop offset="1" stop-color="#D0DFCF"/>
</linearGradient>
</defs>
</svg>
